<?xml version="1.0" encoding="iso-8859-1"?>
<!-- Generator: Adobe Illustrator 19.0.0, SVG Export Plug-In . SVG Version: 6.00 Build 0)  -->
<svg version="1.1" id="Layer_1" xmlns="http://www.w3.org/2000/svg" xmlns:xlink="http://www.w3.org/1999/xlink" x="0px" y="0px"
	 viewBox="0 0 512.001 512.001" style="enable-background:new 0 0 512.001 512.001;" xml:space="preserve">
<path style="fill:#ACABB1;" d="M195.367,335.815l-5.57,64.602c5.298-1.633,10.68-3.068,16.135-4.293
	c9.329-2.125,18.878-3.654,28.605-4.565c5.183-0.503,10.418-0.806,15.706-0.932c1.916-0.063,3.832-0.084,5.759-0.084
	s3.843,0.021,5.759,0.084c5.288,0.126,10.523,0.429,15.706,0.932c7.884,0.733,15.643,1.885,23.265,3.424
	c5.445,1.089,10.816,2.377,16.103,3.864l-5.235-60.718c42.531-15.172,76.947-47.431,95.008-88.495l40.478,4.712V117.352
	l-38.793,4.513c-16.658-40.813-49.305-73.408-90.16-89.993L322.623,0H185.19l4.785,33.976
	c-38.573,17.161-69.293,48.792-85.26,87.993l-38.751-4.659v137.078l40.426-4.869C123.572,288.667,155.611,319.817,195.367,335.815z"
	/>
<g>
	<path style="fill:#FFFFFF;" d="M201.134,268.919l2.682-31.119l-30.867,3.713C180.472,252.339,190.105,261.706,201.134,268.919z"/>
	<path style="fill:#FFFFFF;" d="M339.875,241.855l-36.948-4.306l3.017,34.996C319.398,265.031,331.036,254.502,339.875,241.855z"/>
	<path style="fill:#FFFFFF;" d="M308.997,96.746l-5.255,37.312l38.72-4.515C334.013,116.189,322.523,104.926,308.997,96.746z"/>
	<path style="fill:#FFFFFF;" d="M199.251,99.842c-11.538,7.911-21.423,18.193-28.865,30.024l33.663,4.046L199.251,99.842z"/>
</g>
<path style="fill:#6A563D;" d="M456.194,512H55.807c37.63-72.183,113.153-121.456,200.193-121.456S418.563,439.817,456.194,512z"/>
<path d="M178.796,421.55l-5.788-14.599c-44.163,17.51-82.343,49.159-107.907,89.343h-65.1V512h164.384v-15.706H84.008
	C107.614,462.89,140.831,436.604,178.796,421.55z"/>
<path d="M362.508,458.197c-6.785-6.575-14.214-12.548-22.078-17.75l-8.663,13.1c7.056,4.667,13.721,10.025,19.81,15.929
	L362.508,458.197z"/>
<path d="M321.865,447.584l7.526-13.785c-16.086-8.781-33.742-14.548-51.926-17.069v-71.209H261.76v69.841
	c-1.743-0.06-3.488-0.096-5.235-0.096c-2.102,0-4.195,0.057-6.282,0.14v-48.945h-15.706v50.371
	c-15.335,2.205-30.153,6.736-44.255,13.56l6.84,14.137c18.594-8.997,38.581-13.558,59.402-13.558
	C279.363,430.971,301.957,436.716,321.865,447.584z"/>
<path d="M447.947,496.294c-25.786-40.537-64.353-72.339-108.996-89.773l-5.713,14.63c38.406,14.998,71.983,41.428,95.804,75.144
	H247.101v15.706H512v-15.706h-64.053V496.294z"/>
<rect x="210.455" y="496.294" width="26.176" height="15.706"/>
<path d="M204.459,413.207l7.63-88.5l-5.676-2.048c-29.004-10.466-53.662-29.452-71.307-54.904l-12.907,8.949
	c18.357,26.477,43.58,46.63,73.216,58.567l-6.603,76.587L204.459,413.207z"/>
<path d="M114.575,264.61l13.64-7.786c-3.435-6.018-6.469-12.332-9.015-18.765l-2.228-5.63l-35.303,4.247v-16.799h40.834v-15.706
	H81.669v-10.47h63.869v-15.706H81.669v-10.47h42.928V151.82H81.669v-16.8l33.958,4.081l2.131-5.854
	c10.27-28.211,28.693-52.368,53.273-69.858l-9.105-12.798c-25.474,18.125-44.97,42.733-56.674,71.443l-39.289-4.72v137.068
	l40.98-4.929C109.221,254.632,111.778,259.71,114.575,264.61z"/>
<path d="M181.967,56.312c6.279-3.681,12.883-6.919,19.626-9.623l5.711-2.291l-4.042-28.692h31.275v70.151h15.706V15.706h11.517
	v49.211h15.706V15.706h27.087l-3.805,27.015l5.994,2.167c29.753,10.76,55.754,31.303,73.214,57.844l13.12-8.632
	c-18.134-27.563-44.601-49.279-75.017-61.683L322.623,0H185.19l4.862,34.524c-5.485,2.448-10.856,5.208-16.027,8.24L181.967,56.312z
	"/>
<path d="M395.247,133.127l2.127,5.826l34.006-3.964v16.831h-41.881v15.706h41.881v10.47h-64.916v15.706h64.916v10.47h-43.975v15.706
	h43.975v16.831l-35.362-4.121l-2.223,5.602c-11.935,30.071-33.855,55.792-61.721,72.424l8.05,13.487
	c29.08-17.358,52.308-43.669,65.929-74.531l41.032,4.782V117.346l-39.333,4.585c-2.356-5.752-5.049-11.391-8.041-16.826
	l-13.759,7.572C389.559,119.232,392.686,126.112,395.247,133.127z"/>
<path d="M322.133,316.04c-6.841,3.4-14.005,6.285-21.291,8.576l-6.01,1.889l7.565,87.751l15.647-1.35l-6.494-75.323
	c5.996-2.147,11.885-4.652,17.572-7.48L322.133,316.04z"/>
<path d="M306.109,77.425l-9.618-4.493l-11.138,79.08l81.571-9.51l-4.834-9.95C350.343,108.378,330.462,88.8,306.109,77.425z
	 M303.742,134.058l5.255-37.312c13.526,8.18,25.016,19.442,33.465,32.797L303.742,134.058z"/>
<path d="M146.034,142.758l76.416,9.186l-10.865-77.146l-9.89,5.238c-22.011,11.659-40.084,30.42-50.888,52.825L146.034,142.758z
	 M199.251,99.842l4.799,34.069l-33.663-4.046C177.828,118.035,187.714,107.753,199.251,99.842z"/>
<path d="M204.409,288.866l10.327,5.13l6.388-74.096l-73.564,8.848l5.396,10.121C164.387,260.307,182.66,278.063,204.409,288.866z
	 M203.816,237.8l-2.682,31.119c-11.028-7.213-20.662-16.581-28.184-27.406L203.816,237.8z"/>
<path d="M359.92,239.196l5.469-10.179l-79.762-9.298l6.581,76.336l9.953-4.207C326.749,281.458,347.262,262.758,359.92,239.196z
	 M305.944,272.544l-3.017-34.996l36.948,4.306C331.036,254.502,319.398,265.031,305.944,272.544z"/>
<rect x="234.536" y="329.816" width="15.706" height="26.176"/>
<rect x="261.759" y="75.387" width="15.706" height="26.176"/>
<rect x="352.851" y="151.82" width="26.176" height="15.706"/>
<rect x="132.974" y="204.172" width="26.176" height="15.706"/>
<g>
</g>
<g>
</g>
<g>
</g>
<g>
</g>
<g>
</g>
<g>
</g>
<g>
</g>
<g>
</g>
<g>
</g>
<g>
</g>
<g>
</g>
<g>
</g>
<g>
</g>
<g>
</g>
<g>
</g>
</svg>
