<?xml version="1.0" encoding="iso-8859-1"?>
<!-- Generator: Adobe Illustrator 18.1.1, SVG Export Plug-In . SVG Version: 6.00 Build 0)  -->
<svg version="1.1" id="Capa_1" xmlns="http://www.w3.org/2000/svg" xmlns:xlink="http://www.w3.org/1999/xlink" x="0px" y="0px"
	 viewBox="0 0 60.599 60.599" style="enable-background:new 0 0 60.599 60.599;" xml:space="preserve">
<g>
	<g>
		<path style="fill:#010002;" d="M58.13,17.011c-4.434,0.96-11.693,2.604-13.544,2.316c-1.854-0.288-10.269-8.725-13.494-11.353
			c-1.956-1.595-4.769,1.183-2.793,2.792c2.655,2.163,5.31,4.325,7.964,6.488c-0.066,0.086-0.105,0.14-0.105,0.14l-11.322,8.938
			L13.51,35.378c-0.883,0.774-1.035,2.05-0.238,2.959c0.796,0.909,2.158,1.019,3.042,0.243l12.27-8.945c0,0,0.615-0.445,1.128,0.128
			c0.513,0.574-0.054,1.042-0.054,1.042L17.39,39.75c-0.884,0.773-0.955,2.138-0.159,3.047c0.796,0.91,2.158,1.021,3.042,0.245
			c0,0,20.301-15.302,23.711-18.495c1.35-0.286,10.258-2.658,15.194-3.728C61.667,20.281,60.612,16.474,58.13,17.011z"/>
		<circle style="fill:#010002;" cx="45.434" cy="13.644" r="3.72"/>
		<polygon style="fill:#010002;" points="0,53.102 13.902,53.102 18.509,44.145 0,44.145 		"/>
		<path style="fill:#010002;" d="M5.43,34.067c0.478,0,0.478-0.74,0-0.74C4.953,33.324,4.953,34.067,5.43,34.067z"/>
		<path style="fill:#010002;" d="M7.756,36.761c0.476,0,0.476-0.741,0-0.741C7.278,36.02,7.278,36.761,7.756,36.761z"/>
		<path style="fill:#010002;" d="M9.421,36.82c0.478,0,0.478-0.74,0-0.74C8.942,36.08,8.942,36.82,9.421,36.82z"/>
		<path style="fill:#010002;" d="M10.696,41.471c0.477,0,0.477-0.742,0-0.742S10.219,41.471,10.696,41.471z"/>
		<path style="fill:#010002;" d="M4.69,39.66c0.478,0,0.478-0.741,0-0.741C4.212,38.919,4.212,39.66,4.69,39.66z"/>
	</g>
</g>
<g>
</g>
<g>
</g>
<g>
</g>
<g>
</g>
<g>
</g>
<g>
</g>
<g>
</g>
<g>
</g>
<g>
</g>
<g>
</g>
<g>
</g>
<g>
</g>
<g>
</g>
<g>
</g>
<g>
</g>
</svg>
