<?xml version="1.0" encoding="iso-8859-1"?>
<!-- Generator: Adobe Illustrator 19.0.0, SVG Export Plug-In . SVG Version: 6.00 Build 0)  -->
<svg xmlns="http://www.w3.org/2000/svg" xmlns:xlink="http://www.w3.org/1999/xlink" version="1.1" id="Layer_1" x="0px" y="0px" viewBox="0 0 397.645 397.645" style="enable-background:new 0 0 397.645 397.645;" xml:space="preserve" width="512" height="512">
<g>
	<rect x="26.983" style="fill:#E6E6E6;" width="343.68" height="397.645"/>
	<rect x="53.225" y="26.242" style="fill:#4288BC;" width="291.196" height="280.133"/>
	<path style="fill:#F2F2F2;" d="M249.087,279.752c-3.082,0-6.188-0.561-9.193-1.697l-0.478-0.181   c-8.578-3.243-14.646-10.91-15.832-20.008l-1.141-8.756c-0.225-1.722-1.202-3.233-2.682-4.146   c-1.465-0.903-3.233-1.097-4.852-0.533c-21.597,7.537-43.011,2.967-57.172-2.193c-15.576-5.676-27.792-18.373-32.676-33.964   c-1.399-4.466-2.515-9.303-3.314-14.377c-0.831-5.258,1.935-10.135,6.882-12.135c4.956-2.003,10.34-0.418,13.402,3.946   c3.176,4.524,6.107,9.298,8.713,14.188c2.755,5.171,7.592,9.026,13.271,10.577c2.472,0.675,5.2,1.296,8.109,1.847   c0.118,0.022,0.235,0.045,0.365-0.155c0.136-0.21,0.061-0.316-0.013-0.419c-14.459-20.463-33.14-56.739-42.987-76.542   c-2.979-5.989-6.882-11.417-11.6-16.134c-7.642-7.64-19.1-19.093-25.938-25.919c-4.965-4.956-6.003-12.698-2.524-18.827   l0.117-0.206c2.122-3.741,5.741-6.437,9.931-7.401c4.191-0.961,8.623-0.119,12.163,2.315l35.341,24.297   c2.476,1.702,4.644,3.734,6.443,6.039c7.322,9.377,13.172,23.933,16.79,34.491c0.047,0.14,0.087,0.257,0.394,0.267   c0.287-0.004,0.323-0.119,0.369-0.264c1.791-5.727,2.919-12.037,3.351-18.756c0.348-5.411-1.745-10.608-5.741-14.261   c-8.706-7.956-18.17-15.596-24.577-20.604c-6-4.689-7.615-12.921-3.84-19.574l0.121-0.213c2.036-3.587,5.362-6.118,9.365-7.125   c4.001-1.007,8.128-0.35,11.62,1.848l39.627,24.941c11.913,7.498,18.406,21.35,16.541,35.291   c-6.955,51.989,9.056,65.769,13.327,68.459l29.675-6.668c7.863-1.766,16.104,0.365,22.051,5.7   c9.254,8.298,17.769,17.59,25.307,27.616c3.541,4.709,3.29,10.824-0.626,15.217c-3.867,4.338-10.075,5.315-15.094,2.373   c-12.02-7.042-21.586-14.943-26.219-19.026c-0.428-0.376-1.004-0.496-1.506-0.311c-3.755,1.384-8.113,4.186-12.605,8.103   c-1.027,0.897-1.522,2.19-1.357,3.549c0.166,1.37,0.965,2.517,2.189,3.147l8.427,4.337c9.069,4.668,14.526,14.261,13.903,24.439   l-0.197,3.238c-0.503,8.238-4.765,15.534-11.693,20.016C258.771,278.349,253.959,279.752,249.087,279.752z M216.788,234.109   c2.866,0,5.709,0.792,8.224,2.343c4.054,2.5,6.732,6.642,7.349,11.364l1.141,8.757c0.708,5.433,4.332,10.011,9.456,11.949   l0.478,0.181c4.747,1.794,9.909,1.249,14.158-1.501c4.233-2.739,6.837-7.196,7.144-12.229l0.199-3.24   c0.38-6.22-2.956-12.083-8.499-14.937l-8.427-4.337c-4.157-2.14-6.977-6.189-7.54-10.832c-0.563-4.632,1.198-9.227,4.712-12.292   c5.476-4.775,10.764-8.123,15.718-9.949c3.955-1.458,8.392-0.618,11.577,2.191c4.362,3.845,13.367,11.283,24.661,17.9   c1.27,0.742,2.156,0.069,2.574-0.398c0.499-0.561,0.922-1.458,0.099-2.553c-7.149-9.508-15.221-18.316-23.99-26.182   c-3.546-3.179-8.472-4.446-13.183-3.388l-31.417,7.06c-0.918,0.205-1.871,0.149-2.755-0.161   c-1.232-0.434-30.081-11.397-20.935-79.772c1.348-10.072-3.345-20.082-11.955-25.501L155.948,63.64   c-1.158-0.729-2.528-0.947-3.854-0.613c-1.328,0.333-2.432,1.173-3.107,2.364l-0.121,0.213c-1.308,2.303-0.76,5.146,1.302,6.757   c6.546,5.116,16.225,12.931,25.165,21.102c6.247,5.709,9.518,13.832,8.974,22.284c-0.482,7.514-1.756,14.613-3.786,21.101   c-1.363,4.359-5.201,7.215-9.777,7.277c-4.586,0.071-8.505-2.695-9.989-7.024c-3.369-9.834-8.743-23.295-15.21-31.578   c-1.172-1.499-2.594-2.83-4.229-3.953l-35.341-24.297c-1.256-0.864-2.769-1.153-4.255-0.81c-1.487,0.342-2.722,1.261-3.475,2.588   l-0.117,0.206c-1.265,2.229-0.897,5.03,0.891,6.815c6.841,6.828,18.301,18.284,25.944,25.925   c5.484,5.484,10.021,11.793,13.482,18.753c7.826,15.735,27.604,54.564,42.201,75.224c2.454,3.473,2.555,8.025,0.257,11.599   c-2.294,3.566-6.464,5.359-10.638,4.571c-3.167-0.6-6.156-1.281-8.883-2.026c-8.324-2.273-15.417-7.93-19.462-15.521   c-2.414-4.531-5.13-8.954-8.072-13.146c-0.137-0.195-0.552-0.79-1.468-0.42c-0.902,0.365-0.794,1.048-0.754,1.305   c0,0,0,0.001,0,0.001c0.725,4.591,1.728,8.947,2.98,12.946c3.959,12.64,13.887,22.941,26.557,27.558   c12.633,4.604,31.641,8.711,50.453,2.147C213.304,234.399,215.05,234.109,216.788,234.109z"/>
	<rect x="53.225" y="346.5" style="fill:#666666;" width="63.562" height="15"/>
</g>















</svg>
