<?xml version="1.0" encoding="iso-8859-1"?>
<!-- Generator: Adobe Illustrator 19.0.0, SVG Export Plug-In . SVG Version: 6.00 Build 0)  -->
<svg version="1.1" id="Layer_1" xmlns="http://www.w3.org/2000/svg" xmlns:xlink="http://www.w3.org/1999/xlink" x="0px" y="0px"
	 viewBox="0 0 512 512" style="enable-background:new 0 0 512 512;" xml:space="preserve">
<circle style="fill:#BEEBFF;" cx="256" cy="256" r="256"/>
<g>
	<polygon style="fill:#EBF9FF;" points="439.278,303.247 289.209,126.696 274.433,136.036 353.881,312.588 369.981,305.343 
		316.088,185.58 425.825,314.684 	"/>
	<polygon style="fill:#EBF9FF;" points="213.964,126.696 63.895,303.247 77.347,314.684 187.084,185.582 133.192,305.343 
		149.291,312.588 228.739,136.036 	"/>
</g>
<g>
	<rect x="238.345" y="185.379" style="fill:#B4B4AF;" width="26.483" height="35.31"/>
	<rect x="229.517" y="150.069" style="fill:#B4B4AF;" width="44.138" height="17.655"/>
</g>
<path style="fill:#6E9BE0;" d="M22.959,361.931C63.257,450.435,152.41,512,256,512s192.743-61.565,233.041-150.069H22.959z"/>
<g>
	<path style="fill:#D9F3FF;" d="M158.897,132.414h-44.138c-4.875,0-8.828-3.953-8.828-8.828l0,0c0-4.875,3.953-8.828,8.828-8.828
		h44.138c4.875,0,8.828,3.953,8.828,8.828l0,0C167.724,128.461,163.772,132.414,158.897,132.414z"/>
	<path style="fill:#D9F3FF;" d="M176.552,114.759h-26.483c-4.875,0-8.828-3.953-8.828-8.828l0,0c0-4.875,3.953-8.828,8.828-8.828
		h26.483c4.875,0,8.828,3.953,8.828,8.828l0,0C185.379,110.806,181.427,114.759,176.552,114.759z"/>
	<path style="fill:#D9F3FF;" d="M414.897,194.207h-26.483c-4.875,0-8.828-3.953-8.828-8.828l0,0c0-4.875,3.953-8.828,8.828-8.828
		h26.483c4.875,0,8.828,3.953,8.828,8.828l0,0C423.724,190.254,419.772,194.207,414.897,194.207z"/>
	<path style="fill:#D9F3FF;" d="M450.207,194.207L450.207,194.207c-4.875,0-8.828-3.953-8.828-8.828l0,0
		c0-4.875,3.953-8.828,8.828-8.828l0,0c4.875,0,8.828,3.953,8.828,8.828l0,0C459.034,190.254,455.082,194.207,450.207,194.207z"/>
</g>
<path style="fill:#5C83CE;" d="M300.138,441.379h-52.966c-4.875,0-8.828-3.953-8.828-8.828l0,0c0-4.875,3.953-8.828,8.828-8.828
	h52.966c4.875,0,8.828,3.953,8.828,8.828l0,0C308.966,437.427,305.013,441.379,300.138,441.379z"/>
<g>
	<path style="fill:#87B4F0;" d="M211.862,406.069h-8.828c-4.875,0-8.828-3.953-8.828-8.828l0,0c0-4.875,3.953-8.828,8.828-8.828
		h8.828c4.875,0,8.828,3.953,8.828,8.828l0,0C220.69,402.116,216.737,406.069,211.862,406.069z"/>
	<path style="fill:#87B4F0;" d="M194.207,476.69h-8.828c-4.875,0-8.828-3.953-8.828-8.828l0,0c0-4.875,3.953-8.828,8.828-8.828
		h8.828c4.875,0,8.828,3.953,8.828,8.828l0,0C203.034,472.737,199.082,476.69,194.207,476.69z"/>
	<path style="fill:#87B4F0;" d="M397.241,406.069h-35.31c-4.875,0-8.828-3.953-8.828-8.828l0,0c0-4.875,3.953-8.828,8.828-8.828
		h35.31c4.875,0,8.828,3.953,8.828,8.828l0,0C406.069,402.116,402.116,406.069,397.241,406.069z"/>
	<path style="fill:#87B4F0;" d="M256,476.69h-26.483c-4.875,0-8.828-3.953-8.828-8.828l0,0c0-4.875,3.953-8.828,8.828-8.828H256
		c4.875,0,8.828,3.953,8.828,8.828l0,0C264.828,472.737,260.875,476.69,256,476.69z"/>
	<path style="fill:#87B4F0;" d="M167.724,406.069h-35.31c-4.875,0-8.828-3.953-8.828-8.828l0,0c0-4.875,3.953-8.828,8.828-8.828
		h35.31c4.875,0,8.828,3.953,8.828,8.828l0,0C176.552,402.116,172.599,406.069,167.724,406.069z"/>
</g>
<path style="fill:#5C83CE;" d="M353.103,441.379h-17.655c-4.875,0-8.828-3.953-8.828-8.828l0,0c0-4.875,3.953-8.828,8.828-8.828
	h17.655c4.875,0,8.828,3.953,8.828,8.828l0,0C361.931,437.427,357.978,441.379,353.103,441.379z"/>
<g>
	<path style="fill:#EBF9FF;" d="M282.483,70.621h-35.31c-4.875,0-8.828-3.953-8.828-8.828l0,0c0-4.875,3.953-8.828,8.828-8.828
		h35.31c4.875,0,8.828,3.953,8.828,8.828l0,0C291.31,66.668,287.358,70.621,282.483,70.621z"/>
	<path style="fill:#EBF9FF;" d="M211.862,70.621h-8.828c-4.875,0-8.828-3.953-8.828-8.828l0,0c0-4.875,3.953-8.828,8.828-8.828
		h8.828c4.875,0,8.828,3.953,8.828,8.828l0,0C220.69,66.668,216.737,70.621,211.862,70.621z"/>
	<path style="fill:#EBF9FF;" d="M114.759,203.034H97.103c-4.875,0-8.828-3.953-8.828-8.828l0,0c0-4.875,3.953-8.828,8.828-8.828
		h17.655c4.875,0,8.828,3.953,8.828,8.828l0,0C123.586,199.082,119.634,203.034,114.759,203.034z"/>
	<path style="fill:#EBF9FF;" d="M97.103,220.69h-35.31c-4.875,0-8.828-3.953-8.828-8.828l0,0c0-4.875,3.953-8.828,8.828-8.828h35.31
		c4.875,0,8.828,3.953,8.828,8.828l0,0C105.931,216.737,101.978,220.69,97.103,220.69z"/>
	<path style="fill:#EBF9FF;" d="M317.793,88.276h-52.966c-4.875,0-8.828-3.953-8.828-8.828l0,0c0-4.875,3.953-8.828,8.828-8.828
		h52.966c4.875,0,8.828,3.953,8.828,8.828l0,0C326.621,84.323,322.668,88.276,317.793,88.276z"/>
</g>
<g>
	<path style="fill:#D9F3FF;" d="M388.414,132.414h-52.966c-4.875,0-8.828-3.953-8.828-8.828l0,0c0-4.875,3.953-8.828,8.828-8.828
		h52.966c4.875,0,8.828,3.953,8.828,8.828l0,0C397.241,128.461,393.289,132.414,388.414,132.414z"/>
	<path style="fill:#D9F3FF;" d="M406.069,114.759h-35.31c-4.875,0-8.828-3.953-8.828-8.828l0,0c0-4.875,3.953-8.828,8.828-8.828
		h35.31c4.875,0,8.828,3.953,8.828,8.828l0,0C414.897,110.806,410.944,114.759,406.069,114.759z"/>
</g>
<path style="fill:#5C83CE;" d="M27.176,370.759h457.647c2.898-5.768,5.596-11.649,8.061-17.655H19.115
	C21.58,359.109,24.278,364.991,27.176,370.759z"/>
<path style="fill:#B4B4AF;" d="M7.555,317.793h496.889c1.439-5.806,2.65-11.7,3.686-17.655H3.87
	C4.905,306.093,6.116,311.987,7.555,317.793z"/>
<g>
	<polygon style="fill:#D2D2CD;" points="273.655,185.379 300.138,105.931 273.655,105.931 256,185.379 282.483,353.103 
		317.793,353.103 	"/>
	<polygon style="fill:#D2D2CD;" points="199.318,300.138 229.053,300.138 247.172,185.379 229.517,105.931 203.034,105.931 
		229.517,185.379 	"/>
	<polygon style="fill:#D2D2CD;" points="194.671,317.793 185.379,353.103 220.69,353.103 226.265,317.793 	"/>
</g>
<g>
</g>
<g>
</g>
<g>
</g>
<g>
</g>
<g>
</g>
<g>
</g>
<g>
</g>
<g>
</g>
<g>
</g>
<g>
</g>
<g>
</g>
<g>
</g>
<g>
</g>
<g>
</g>
<g>
</g>
</svg>
